<svg xmlns="http://www.w3.org/2000/svg" width="24" height="24" viewBox="0 0 24 24" fill="none" class="checkmark-group--icon-custom" aria-hidden="true"><path fill-rule="evenodd" clip-rule="evenodd" d="M5.08636 3.59344C5.24696 3.23254 5.60497 3 5.99999 3H9.99999V5H6.64953L3.9283 11.1151C4.27355 11.0397 4.63214 11 5 11C7.41896 11 9.43671 12.7178 9.89998 15H14.1C14.5633 12.7178 16.581 11 19 11C19.3679 11 19.7264 11.0397 20.0717 11.1151L17.3505 5H14V3H18C18.395 3 18.753 3.23254 18.9136 3.59344L23.294 13.437C23.7423 14.1865 24 15.0631 24 16C24 18.7614 21.7614 21 19 21C16.581 21 14.5633 19.2822 14.1 17H9.89998C9.43671 19.2822 7.41896 21 5 21C2.23858 21 0 18.7614 0 16C0 15.0631 0.257667 14.1865 0.706001 13.437L5.08636 3.59344ZM21.5226 14.3757L21.5364 14.4066L21.541 14.4045C21.8318 14.8666 22 15.4137 22 16C22 17.6569 20.6569 19 19 19C17.3431 19 16 17.6569 16 16C16 14.3431 17.3431 13 19 13C20.0583 13 20.9886 13.548 21.5226 14.3757ZM2.46361 14.4066L2.45899 14.4045C2.1682 14.8666 2 15.4137 2 16C2 17.6569 3.34315 19 5 19C6.65685 19 8 17.6569 8 16C8 14.3431 6.65685 13 5 13C3.94171 13 3.01141 13.548 2.47736 14.3757L2.46361 14.4066Z" fill="#E50914"/></svg>